<svg version="1.1" id="Layer_1" xmlns="http://www.w3.org/2000/svg" xmlns:xlink="http://www.w3.org/1999/xlink" x="0px" y="0px"
	 width="100%" viewBox="0 0 811 962" enable-background="new 0 0 811 962" xml:space="preserve">
<path fill="none" opacity="1.000000" stroke="none" 
	d="
M338.000000,963.000000 
	C225.333328,963.000000 113.166664,963.000000 1.000000,963.000000 
	C1.000000,642.333313 1.000000,321.666656 1.000000,1.000000 
	C271.333344,1.000000 541.666687,1.000000 812.000000,1.000000 
	C812.000000,321.666656 812.000000,642.333313 812.000000,963.000000 
	C654.166687,963.000000 496.333344,963.000000 338.000000,963.000000 
M413.232819,890.101196 
	C418.202087,900.862244 425.739227,902.002563 433.380768,892.906372 
	C435.474152,890.414490 437.188721,887.389404 438.308105,884.327820 
	C448.467438,856.542358 463.616547,831.544678 482.177979,808.791748 
	C496.013000,791.832397 510.768494,775.503723 526.275330,760.060242 
	C543.920715,742.486938 562.983826,726.345581 581.193726,709.328125 
	C596.750000,694.790405 612.128357,680.053650 627.302246,665.117310 
	C648.241028,644.506409 665.307922,621.087219 677.342590,594.156677 
	C688.492249,569.206299 694.071838,542.964783 694.947510,515.751465 
	C696.006653,482.833832 690.675720,450.770020 680.813232,419.438202 
	C675.510803,402.593048 668.776123,386.337433 659.932861,370.982391 
	C652.022522,357.247009 642.667725,344.576904 632.084595,332.833069 
	C624.212708,324.097961 614.832153,317.760193 602.675110,316.713074 
	C593.395447,315.913818 585.639648,318.848053 580.126465,326.570374 
	C574.525757,334.415314 572.064880,343.429535 572.090698,352.893738 
	C572.151123,375.057526 571.398132,397.119171 568.197021,419.109955 
	C563.571045,450.888824 552.685181,480.214478 535.500549,507.303986 
	C528.244629,518.742126 519.848938,528.931396 509.668945,538.092957 
	C496.711670,549.754028 484.720032,562.583618 473.117004,575.625488 
	C462.633636,587.408875 452.279083,599.517944 443.536255,612.598633 
	C418.346924,650.285950 406.186523,692.232300 406.072113,737.523254 
	C406.006958,763.323547 406.488495,789.129700 407.064789,814.925598 
	C407.432495,831.385010 408.126465,847.851074 409.259033,864.273804 
	C409.838776,872.681213 411.703644,881.000061 413.232819,890.101196 
M449.277588,384.740295 
	C450.361908,383.063660 451.374054,381.334900 452.541626,379.718384 
	C465.426697,361.879120 475.195343,342.635162 480.211060,321.027100 
	C484.782837,301.331757 487.748688,281.438385 487.850037,261.251312 
	C487.913422,248.633255 487.116608,235.969574 485.961182,223.394775 
	C483.024597,191.435455 474.738770,160.813202 460.697876,131.957550 
	C457.838379,126.080994 452.807465,120.838554 447.711761,116.578644 
	C441.228149,111.158470 428.071259,111.302979 423.206421,118.467079 
	C419.626831,123.738441 415.729553,129.329361 414.170410,135.346985 
	C406.446655,165.157730 392.411499,191.758835 374.762390,216.693787 
	C356.426392,242.599243 334.109009,265.016541 312.472534,288.034485 
	C301.998169,299.177673 290.949463,309.851440 281.254150,321.637177 
	C270.924103,334.194489 260.966217,347.249969 252.473038,361.086731 
	C234.330795,390.643250 229.805786,422.955505 236.760376,456.783600 
	C243.782089,490.938232 259.097595,521.707825 278.464294,550.188721 
	C295.564880,575.337097 314.283722,599.442017 333.228760,623.259338 
	C346.153809,639.508545 360.665161,654.499207 374.560638,669.968628 
	C376.195312,671.788513 378.251343,673.400085 380.411285,674.542358 
	C384.880432,676.905884 388.084686,674.748962 387.584961,669.657288 
	C387.262756,666.374878 386.568451,663.025452 385.401917,659.948303 
	C381.512909,649.689758 377.003815,639.658325 373.337097,629.325256 
	C365.483582,607.193237 358.130676,584.814941 356.438629,561.233948 
	C355.479156,547.862366 355.080933,534.221985 356.589203,520.948059 
	C360.045410,490.531250 375.368195,465.479889 395.446777,443.205292 
	C413.030273,423.698700 431.119751,404.648254 449.277588,384.740295 
M231.505798,729.988525 
	C244.977081,742.132996 258.801056,753.912903 271.827118,766.517517 
	C286.884735,781.087891 301.500732,796.139587 315.834747,811.426514 
	C334.583069,831.421387 350.018677,853.903503 364.357391,877.233276 
	C368.632599,884.189331 374.341492,890.595215 380.515747,895.962097 
	C386.987854,901.587769 393.546692,899.093384 395.584839,890.763245 
	C397.073059,884.680786 397.829071,878.265015 397.823395,871.998840 
	C397.802948,849.517090 397.251434,827.036438 397.029297,804.554138 
	C396.760773,777.371826 392.624939,750.969055 382.761475,725.466187 
	C373.128174,700.558472 358.975677,678.348145 342.693085,657.503479 
	C332.798889,644.837158 321.364594,633.385681 310.914490,621.138916 
	C297.474518,605.388245 283.720001,589.847290 271.238861,573.354858 
	C260.444763,559.091675 250.445190,544.082886 241.525055,528.580505 
	C229.053986,506.906860 219.672760,483.759521 213.333069,459.471954 
	C211.440887,452.222961 209.916580,444.819214 207.303284,437.830536 
	C203.012924,426.356781 194.668045,419.081299 182.193924,417.841064 
	C171.328247,416.760773 163.198792,422.288361 158.623413,431.450684 
	C153.234589,442.242004 148.136307,453.474182 145.101303,465.087311 
	C137.311157,494.895691 130.717545,524.934082 134.928757,556.256287 
	C139.135849,587.547913 148.779800,616.833740 164.445831,644.231995 
	C182.536484,675.870605 206.863220,702.598267 231.505798,729.988525 
z"/>
<path fill="#1d4ed8" opacity="1.000000" stroke="none" 
	d="
M413.110260,889.730103 
	C411.703644,881.000061 409.838776,872.681213 409.259033,864.273804 
	C408.126465,847.851074 407.432495,831.385010 407.064789,814.925598 
	C406.488495,789.129700 406.006958,763.323547 406.072113,737.523254 
	C406.186523,692.232300 418.346924,650.285950 443.536255,612.598633 
	C452.279083,599.517944 462.633636,587.408875 473.117004,575.625488 
	C484.720032,562.583618 496.711670,549.754028 509.668945,538.092957 
	C519.848938,528.931396 528.244629,518.742126 535.500549,507.303986 
	C552.685181,480.214478 563.571045,450.888824 568.197021,419.109955 
	C571.398132,397.119171 572.151123,375.057526 572.090698,352.893738 
	C572.064880,343.429535 574.525757,334.415314 580.126465,326.570374 
	C585.639648,318.848053 593.395447,315.913818 602.675110,316.713074 
	C614.832153,317.760193 624.212708,324.097961 632.084595,332.833069 
	C642.667725,344.576904 652.022522,357.247009 659.932861,370.982391 
	C668.776123,386.337433 675.510803,402.593048 680.813232,419.438202 
	C690.675720,450.770020 696.006653,482.833832 694.947510,515.751465 
	C694.071838,542.964783 688.492249,569.206299 677.342590,594.156677 
	C665.307922,621.087219 648.241028,644.506409 627.302246,665.117310 
	C612.128357,680.053650 596.750000,694.790405 581.193726,709.328125 
	C562.983826,726.345581 543.920715,742.486938 526.275330,760.060242 
	C510.768494,775.503723 496.013000,791.832397 482.177979,808.791748 
	C463.616547,831.544678 448.467438,856.542358 438.308105,884.327820 
	C437.188721,887.389404 435.474152,890.414490 433.380768,892.906372 
	C425.739227,902.002563 418.202087,900.862244 413.110260,889.730103 
z"/>
<path fill="#1d4ed8" opacity="1.000000" stroke="none" 
	d="
M449.131653,385.068298 
	C431.119751,404.648254 413.030273,423.698700 395.446777,443.205292 
	C375.368195,465.479889 360.045410,490.531250 356.589203,520.948059 
	C355.080933,534.221985 355.479156,547.862366 356.438629,561.233948 
	C358.130676,584.814941 365.483582,607.193237 373.337097,629.325256 
	C377.003815,639.658325 381.512909,649.689758 385.401917,659.948303 
	C386.568451,663.025452 387.262756,666.374878 387.584961,669.657288 
	C388.084686,674.748962 384.880432,676.905884 380.411285,674.542358 
	C378.251343,673.400085 376.195312,671.788513 374.560638,669.968628 
	C360.665161,654.499207 346.153809,639.508545 333.228760,623.259338 
	C314.283722,599.442017 295.564880,575.337097 278.464294,550.188721 
	C259.097595,521.707825 243.782089,490.938232 236.760376,456.783600 
	C229.805786,422.955505 234.330795,390.643250 252.473038,361.086731 
	C260.966217,347.249969 270.924103,334.194489 281.254150,321.637177 
	C290.949463,309.851440 301.998169,299.177673 312.472534,288.034485 
	C334.109009,265.016541 356.426392,242.599243 374.762390,216.693787 
	C392.411499,191.758835 406.446655,165.157730 414.170410,135.346985 
	C415.729553,129.329361 419.626831,123.738441 423.206421,118.467079 
	C428.071259,111.302979 441.228149,111.158470 447.711761,116.578644 
	C452.807465,120.838554 457.838379,126.080994 460.697876,131.957550 
	C474.738770,160.813202 483.024597,191.435455 485.961182,223.394775 
	C487.116608,235.969574 487.913422,248.633255 487.850037,261.251312 
	C487.748688,281.438385 484.782837,301.331757 480.211060,321.027100 
	C475.195343,342.635162 465.426697,361.879120 452.541626,379.718384 
	C451.374054,381.334900 450.361908,383.063660 449.131653,385.068298 
z"/>
<path fill="#1d4ed8" opacity="1.000000" stroke="none" 
	d="
M231.257904,729.737183 
	C206.863220,702.598267 182.536484,675.870605 164.445831,644.231995 
	C148.779800,616.833740 139.135849,587.547913 134.928757,556.256287 
	C130.717545,524.934082 137.311157,494.895691 145.101303,465.087311 
	C148.136307,453.474182 153.234589,442.242004 158.623413,431.450684 
	C163.198792,422.288361 171.328247,416.760773 182.193924,417.841064 
	C194.668045,419.081299 203.012924,426.356781 207.303284,437.830536 
	C209.916580,444.819214 211.440887,452.222961 213.333069,459.471954 
	C219.672760,483.759521 229.053986,506.906860 241.525055,528.580505 
	C250.445190,544.082886 260.444763,559.091675 271.238861,573.354858 
	C283.720001,589.847290 297.474518,605.388245 310.914490,621.138916 
	C321.364594,633.385681 332.798889,644.837158 342.693085,657.503479 
	C358.975677,678.348145 373.128174,700.558472 382.761475,725.466187 
	C392.624939,750.969055 396.760773,777.371826 397.029297,804.554138 
	C397.251434,827.036438 397.802948,849.517090 397.823395,871.998840 
	C397.829071,878.265015 397.073059,884.680786 395.584839,890.763245 
	C393.546692,899.093384 386.987854,901.587769 380.515747,895.962097 
	C374.341492,890.595215 368.632599,884.189331 364.357391,877.233276 
	C350.018677,853.903503 334.583069,831.421387 315.834747,811.426514 
	C301.500732,796.139587 286.884735,781.087891 271.827118,766.517517 
	C258.801056,753.912903 244.977081,742.132996 231.257904,729.737183 
z"/>
</svg>